0
SECTION
2
HEADER
9
$ACADVER
1
AC1009
9
$INSUNITS
70
4
0
ENDSEC
0
SECTION
2
ENTITIES
0
LINE
8
PROFILE
10
-42.000000
20
-32.000000
30
0.0
11
42.000000
21
-32.000000
31
0.0
0
ARC
8
PROFILE
10
42.0000
20
-24.0000
30
0.0
40
8.0000
50
270.0000
51
360.0000
0
LINE
8
PROFILE
10
50.000000
20
-24.000000
30
0.0
11
50.000000
21
24.000000
31
0.0
0
ARC
8
PROFILE
10
42.0000
20
24.0000
30
0.0
40
8.0000
50
0.0000
51
90.0000
0
LINE
8
PROFILE
10
42.000000
20
32.000000
30
0.0
11
-42.000000
21
32.000000
31
0.0
0
ARC
8
PROFILE
10
-42.0000
20
24.0000
30
0.0
40
8.0000
50
90.0000
51
180.0000
0
LINE
8
PROFILE
10
-50.000000
20
24.000000
30
0.0
11
-50.000000
21
-24.000000
31
0.0
0
ARC
8
PROFILE
10
-42.0000
20
-24.0000
30
0.0
40
8.0000
50
180.0000
51
270.0000
0
LINE
8
PROFILE
10
-25.000000
20
-18.000000
30
0.0
11
25.000000
21
-18.000000
31
0.0
0
ARC
8
PROFILE
10
25.0000
20
-13.0000
30
0.0
40
5.0000
50
270.0000
51
360.0000
0
LINE
8
PROFILE
10
30.000000
20
-13.000000
30
0.0
11
30.000000
21
13.000000
31
0.0
0
ARC
8
PROFILE
10
25.0000
20
13.0000
30
0.0
40
5.0000
50
0.0000
51
90.0000
0
LINE
8
PROFILE
10
25.000000
20
18.000000
30
0.0
11
-25.000000
21
18.000000
31
0.0
0
ARC
8
PROFILE
10
-25.0000
20
13.0000
30
0.0
40
5.0000
50
90.0000
51
180.0000
0
LINE
8
PROFILE
10
-30.000000
20
13.000000
30
0.0
11
-30.000000
21
-13.000000
31
0.0
0
ARC
8
PROFILE
10
-25.0000
20
-13.0000
30
0.0
40
5.0000
50
180.0000
51
270.0000
0
ENDSEC
0
EOF
