0
SECTION
2
HEADER
9
$ACADVER
1
AC1009
9
$INSUNITS
70
4
0
ENDSEC
0
SECTION
2
ENTITIES
0
CIRCLE
8
PROFILE
10
-20.0000
20
0.0000
30
0.0
40
38.0000
0
LINE
8
PROFILE
10
18.000000
20
28.000000
30
0.0
11
52.000000
21
28.000000
31
0.0
0
ARC
8
PROFILE
10
52.0000
20
26.0000
30
0.0
40
2.0000
50
90.0000
51
0.0000
0
LINE
8
PROFILE
10
54.000000
20
26.000000
30
0.0
11
54.000000
21
-26.000000
31
0.0
0
ARC
8
PROFILE
10
52.0000
20
-26.0000
30
0.0
40
2.0000
50
0.0000
51
270.0000
0
LINE
8
PROFILE
10
52.000000
20
-28.000000
30
0.0
11
18.000000
21
-28.000000
31
0.0
0
ARC
8
PROFILE
10
-20.0000
20
0.0000
30
0.0
40
38.0000
50
323.6156
51
396.3844
0
LINE
8
PROFILE
10
29.000000
20
6.000000
30
0.0
11
41.000000
21
6.000000
31
0.0
0
ARC
8
PROFILE
10
41.0000
20
8.0000
30
0.0
40
2.0000
50
270.0000
51
360.0000
0
LINE
8
PROFILE
10
43.000000
20
8.000000
30
0.0
11
43.000000
21
16.000000
31
0.0
0
ARC
8
PROFILE
10
41.0000
20
16.0000
30
0.0
40
2.0000
50
0.0000
51
90.0000
0
LINE
8
PROFILE
10
41.000000
20
18.000000
30
0.0
11
29.000000
21
18.000000
31
0.0
0
ARC
8
PROFILE
10
29.0000
20
16.0000
30
0.0
40
2.0000
50
90.0000
51
180.0000
0
LINE
8
PROFILE
10
27.000000
20
16.000000
30
0.0
11
27.000000
21
8.000000
31
0.0
0
ARC
8
PROFILE
10
29.0000
20
8.0000
30
0.0
40
2.0000
50
180.0000
51
270.0000
0
LINE
8
PROFILE
10
29.000000
20
-18.000000
30
0.0
11
41.000000
21
-18.000000
31
0.0
0
ARC
8
PROFILE
10
41.0000
20
-16.0000
30
0.0
40
2.0000
50
270.0000
51
360.0000
0
LINE
8
PROFILE
10
43.000000
20
-16.000000
30
0.0
11
43.000000
21
-8.000000
31
0.0
0
ARC
8
PROFILE
10
41.0000
20
-8.0000
30
0.0
40
2.0000
50
0.0000
51
90.0000
0
LINE
8
PROFILE
10
41.000000
20
-6.000000
30
0.0
11
29.000000
21
-6.000000
31
0.0
0
ARC
8
PROFILE
10
29.0000
20
-8.0000
30
0.0
40
2.0000
50
90.0000
51
180.0000
0
LINE
8
PROFILE
10
27.000000
20
-8.000000
30
0.0
11
27.000000
21
-16.000000
31
0.0
0
ARC
8
PROFILE
10
29.0000
20
-16.0000
30
0.0
40
2.0000
50
180.0000
51
270.0000
0
ENDSEC
0
EOF
